<svg xmlns="http://www.w3.org/2000/svg" xmlns:xlink="http://www.w3.org/1999/xlink" width="140" height="140" viewBox="0 0 140 140">
    <defs>
        <circle id="prefix__a" cx="70" cy="70" r="70"/>
    </defs>
    <g fill="none" fill-rule="evenodd">
        <mask id="prefix__b" fill="#fff">
            <use xlink:href="#prefix__a"/>
        </mask>
        <use fill="#F5F5F5" xlink:href="#prefix__a"/>
        <g mask="url(#prefix__b)">
            <g transform="translate(-12 10)">
                <path fill="#BCBCBC" fill-rule="nonzero" d="M147.053 105.228L159.18 105.017 158.532 103.653 146.51 103.81 142.713 93.608 154.805 93.397 154.157 92.032 142.17 92.19 138.373 81.987 150.308 81.76 149.678 80.412 137.847 80.552 134.05 70.368 146.02 70.14 145.373 68.793 133.525 68.933 128.958 56.7 140.998 56.49 140.35 55.125 128.433 55.282 118.808 29.453 117.495 30.205 148.225 112.752 149.748 112.49 146.982 105.088z"/>
                <path fill="#95CBFF" fill-rule="nonzero" d="M139.947 64.733L140.507 66.465 138.67 66.57 138.303 64.978z"/>
                <path fill="#FF667E" fill-rule="nonzero" d="M138.32 66.115s-.612 1.75-3.955 3.605c-.28 1.032-.035 1.715.805 1.68.84-.035 5.46-2.8 5.688-3.29.244-.49-.053-2.117-.333-2.24-.28-.123-.507-.088-.507-.088l-1.698.333z"/>
                <path fill="#FFF" fill-rule="nonzero" d="M140.945 67.865L134.82 71.365 135.327 71.54 140.928 68.442zM136.588 67.83c.035-.017.07-.017.087 0l.472.718c.018.017 0 .052-.017.07-.035.017-.053.017-.07 0l-.472-.718c-.035-.018-.018-.053 0-.07zM136.08 68.127s0-.017 0 0c.035-.017.07-.017.087 0l.473.718c.018.017 0 .052-.017.07-.035.017-.053.017-.07 0l-.473-.718c-.035-.017-.018-.052 0-.07zM135.643 68.46c.017-.017.052-.017.07 0l.49.525c.017.017.017.052-.018.07-.035.017-.053.017-.07 0l-.49-.525c0-.017 0-.052.018-.07z"/>
                <path fill="#2A748C" fill-rule="nonzero" d="M140.683 40.127l-14.718 9.398.297-2.082c.63.682 1.208 1.417 1.786 2.135l1.767 2.152 3.518 4.305 7.052 8.627-1.732 1.575-15.365-16.082c-.998-1.032-.945-2.678.087-3.675.088-.087.192-.175.28-.245l.21-.14 14.315-10.08 2.502 4.112z"/>
                <path fill="#4287A5" fill-rule="nonzero" d="M135.678 34.318c.017.035-.49 3.762-.456 3.762.403.053 7.438 3.973 9.923 1.925 2.73-2.275.752-7.84-.77-9.065-.053-.035.018-.77-.053-.718l-7.262 4.813c-.035.018-.053.07-.035.105l-1.347-.822z"/>
                <path fill="#95CBFF" fill-rule="nonzero" d="M146.107 75.933L146.667 77.665 144.83 77.77 144.463 76.177z"/>
                <path fill="#FF667E" fill-rule="nonzero" d="M144.393 77.228s-.106 1.697-4.865 3.15c-.49 1.05-.333 1.82.577 1.942.91.123 6.335-2.03 6.685-2.52.35-.49.333-2.275.053-2.468-.28-.192-.525-.192-.525-.192l-1.925.088z"/>
                <circle cx="145.705" cy="78.627" r="1" fill="#FFF" fill-rule="nonzero"/>
                <path fill="#FFF" fill-rule="nonzero" d="M146.773 79.8L139.632 82.18 140.053 82.547 146.702 80.272zM142.257 78.733c.035-.035.07-.035.088-.018l.648.735c.017.017.017.052-.018.087-.017.018-.07.035-.088 0l-.647-.735c0-.017 0-.052.017-.07zM141.75 79.118c0-.018 0-.018 0 0 .035-.035.07-.035.088-.018l.647.735c.017.018.017.053-.018.088-.017.017-.07.034-.087 0l-.648-.736c0-.017 0-.052.018-.07zM141.33 79.537c.017-.035.052-.035.087-.017l.648.525c.018.017.018.052 0 .087-.017.035-.053.035-.088.018l-.647-.525c-.018-.017-.018-.07 0-.088z"/>
                <path fill="#4287A5" fill-rule="nonzero" d="M146.335 35.07l-.56 5.215-.507 5.233c-.158 1.732-.316 3.482-.456 5.215-.07.857-.14 1.732-.192 2.572l-.035.63c-.018.21-.018.402 0 .612.017.403.035.823.07 1.243.105 1.697.245 3.413.403 5.145.157 1.732.332 3.465.525 5.197.367 3.465.77 6.948 1.172 10.413l-2.852.332c-.595-3.465-1.173-6.93-1.715-10.394-.28-1.733-.543-3.483-.788-5.216-.245-1.75-.49-3.482-.683-5.267-.052-.438-.105-.892-.122-1.347-.018-.228-.018-.456-.018-.683l.018-.665c.018-.892.053-1.767.088-2.66.07-1.768.157-3.518.245-5.268l.297-5.25.333-5.25 4.777.193z"/>
                <path fill="#DDD" fill-rule="nonzero" d="M162.47 112.49L131.53 29.453 130.235 30.205 160.947 112.752z"/>
                <path fill="#FD6880" fill-rule="nonzero" d="M131.46 15.295c5.565-.07 11.2 7.805 14.297 17.097l-12.25 3.886s-5.775-17.483-5.88-18.183c.91-1.54 2.468-2.555 3.833-2.8z"/>
                <path fill="#E15E6E" fill-rule="nonzero" d="M130.602 20.317l4.183 7.735-4.725.088-1.75-7.753-2.66 3.325-2.013-1.05s3.518-5.774 4.533-5.075c1.015.7 2.433 2.73 2.433 2.73z"/>
                <path fill="#97CCFD" fill-rule="nonzero" d="M130.69 17.238L122.675 4.9l-6.23 2.835s5.968 10.483 7.91 9.905c1.715-.508 2.677-2.1 2.677-2.1l2.52 3.063 1.138-1.366z"/>
                <path fill="#76AFD8" fill-rule="nonzero" d="M121.188 10.938l2.957 2.782-1.75 1.4s-1.575-2.1-1.68-3.605"/>
                <path fill="#6B8BFC" fill-rule="nonzero" d="M120.942.035l6.248 11.27s-4.078-3.29-5.373-3.955c-.962 2.065-3.027 5.338-6.474 5.548-5.076.315-5.425-5.04-5.425-5.04s7.63-2.573 11.024-7.823z"/>
                <path fill="#97CCFD" fill-rule="nonzero" d="M127.995 17.115L129.5 15.4 129.972 15.26 131.18 20.247z"/>
                <path fill="#FFA897" fill-rule="nonzero" d="M127.802 16.975L128.048 16.712 128.292 17.063 128.24 17.115 130.393 19.215 129.745 15.418 129.535 15.488 129.343 15.155 130.095 14.945 130.077 15.172 131.74 20.808 131.705 22.33 130.778 21.122 127.802 17.238 127.698 17.098z"/>
                <path fill="#97CCFD" fill-rule="nonzero" d="M125.09 11.69s1.102-3.325 2.1-1.505c.998 1.82-1.225 2.765-1.225 2.765"/>
                <path fill="#FF6A84" fill-rule="nonzero" d="M125.737 23.573l-1.347 1.977c-.455.648-.91 1.313-1.347 1.977v.018c-.018.035-.053.07-.07.087-.07.088-.088.105-.123.14l-.105.088c-.07.053-.123.123-.193.157-.122.105-.262.193-.385.28-.262.175-.507.316-.787.456-.525.262-1.067.472-1.61.612-1.085.315-2.188.42-3.272.438-.543 0-1.086-.018-1.61-.07-.263-.018-.526-.07-.788-.088l-.787-.122c-1.033-.175-2.048-.456-3.046-.77l.438-1.663c.963.192 1.925.35 2.888.455l.717.07c.245.018.472.035.718.035.472.018.944.018 1.417 0 .928-.052 1.838-.175 2.695-.438.42-.122.823-.297 1.19-.49.192-.105.368-.21.525-.315.07-.052.157-.105.227-.174.036-.035.07-.053.088-.088l.035-.035s.035-.035 0 0l-.087.105c.455-.665.91-1.33 1.382-1.995.228-.332.472-.665.718-.98.245-.332.472-.647.734-.98l1.785 1.313z"/>
                <circle cx="111.825" cy="25.34" r="2.135" fill="#E15E6E" fill-rule="nonzero"/>
                <g fill-rule="nonzero">
                    <path fill="#76AFD8" d="M78.015 1.137s.875-.262 1.225.193c.455.612 1.4-.035 1.488.228.122.35-1.243 1.12-2.153 1.277-.805.14-.56-1.698-.56-1.698z" transform="translate(35 23.8)"/>
                    <path fill="#F6F6F6" d="M0.263 0.735L99.89 2.292 94.657 90.335 2.607 92.19z" transform="translate(35 23.8)"/>
                    <path fill="#C9C9C9" d="M2.433 92.365v-.175L.105.543H.28L100.082 2.1l-.017.175-5.233 88.2h-.157l-92.242 1.89zM.455.91l2.328 91.105L94.5 90.16l5.215-87.692L.455.91z" transform="translate(35 23.8)"/>
                    <path fill="#FFA897" d="M36.54 58.695L44.712 59.045 43.82 91.507 35.648 91.683z" transform="translate(35 23.8)"/>
                    <path fill="#FF6A84" d="M21.052 49.367L29.68 49.91 28.788 91.718 21.052 91.98zM27.615 24.168V11.673c-.28-.018-.56-.036-.84-.036-8.522.088-13.615 5.163-13.527 12.425.087 7.28 7.175 12.163 14.104 12.425 5.408.193 9.853-3.01 11.568-7.857l-11.305-4.462z" transform="translate(35 23.8)"/>
                    <path fill="#FFA897" d="M42.28 22.977c-.263-7.49-7.333-12.967-13.825-13.125l.613 13.546 12.617 4.34c.438-1.488.648-3.08.595-4.76z" transform="translate(35 23.8)"/>
                    <path fill="#97CCFD" d="M78.313 2.572s.402-1.137.28-1.505c-.316-.962-2.52-1.382-3.08-.804-.56.577-.333 2.397-.333 2.397l3.132-.088z" transform="translate(35 23.8)"/>
                    <path fill="#97CCFD" d="M78.365 1.663s.525 3.184.21 3.29c-.63.227-1.138-2.923-.98-3.203.175-.262.77-.087.77-.087z" transform="translate(35 23.8)"/>
                    <path fill="#97CCFD" d="M77.665 1.802s-.508 3.658-.91 3.693c-.438.035-.123-3.395.14-3.675.228-.298.77-.018.77-.018zM76.772 1.785s-.91 3.29-1.434 3.167c-.385-.087.367-3.01.665-3.237.28-.228.77.07.77.07z" transform="translate(35 23.8)"/>
                    <path fill="#97CCFD" d="M76.002 1.505s-1.207 2.782-1.522 2.643c-.333-.123.472-2.643.752-2.818.28-.175.77.175.77.175z" transform="translate(35 23.8)"/>
                </g>
                <g fill-rule="nonzero">
                    <path fill="#AA4B67" d="M44.03 50.365s.735 1.487 2.38 3.535c-6.825 2.958-19.18-.297-23.03-1.137-10.412-2.293-9.047-4.305-9.047-4.305S28.035 35.91 44.03 50.365z" transform="translate(0 44.45)"/>
                    <path fill="#FD6880" d="M7.298 83.457c.192 1.296 1.714 4.866 2.572 6.703.228.49 1.435.77 1.61.718.735-.158 2.258-.053 1.872-1.663-.017-.105-1.277-.105-1.295-.21-.21-1.575-2.782-6.195-2.782-6.195s-2.1-.228-1.978.647z" transform="translate(0 44.45)"/>
                    <path fill="#FD6880" d="M11.06 85.785s1.172.84 1.33.718c.157-.123 1.172-1.925.647-2.013-.525-.087-2.275-.122-2.415.245-.14.368.438 1.05.438 1.05z" transform="translate(0 44.45)"/>
                    <path fill="#76A2C4" d="M33.547 35.14c.298.332.526.665.7.98.105.158.175.315.245.473.07.157.14.314.193.472.227.613.35 1.225.385 1.82.087 1.19-.297 2.31-.525 3.448-.543 2.257-1.242 4.514-2.047 6.737-.403 1.12-.84 2.222-1.278 3.325l-1.313 3.325c-.42 1.102-.857 2.223-1.26 3.343l-.297.84-.28.84-.297.84-.28.857-.28.858-.28.874-.158.456c-.052.157-.122.332-.192.49l-.053.122-.07.14-.07.14-.07.123c-.087.174-.175.332-.262.472-.35.595-.718 1.103-1.068 1.593-.367.49-.717.962-1.085 1.434-1.47 1.856-2.94 3.658-4.41 5.46-1.47 1.803-2.887 3.623-4.288 5.46-.7.928-1.382 1.856-2.065 2.8l-.997 1.436c-.157.245-.315.49-.49.717l-.473.735-1.61-1.278 1.05-1.364 1.033-1.383c.683-.927 1.383-1.855 2.048-2.782 1.347-1.873 2.66-3.763 3.954-5.67 1.278-1.908 2.52-3.85 3.658-5.793.28-.49.56-.98.822-1.47.263-.49.508-.98.683-1.435.052-.105.087-.228.122-.332l.035-.07.018-.07.017-.07.018-.088c.035-.123.052-.227.087-.35l.088-.385c.105-.525.21-1.085.298-1.645.192-1.12.35-2.24.507-3.377.157-1.138.297-2.276.42-3.413.28-2.275.508-4.567.735-6.877.227-2.293.455-4.586.665-6.896l.315-3.447c.105-1.155.21-2.292.297-3.447l7.105 1.032z" transform="translate(0 44.45)"/>
                    <path fill="#FFF" d="M8.313 82.757s.14.788-.578.823c.21 1.383 1.47 4.55 2.433 6.317.332.613 2.905.49 3.237-.035-.053.298-.157 1.12-1.925 1.156-.402.017-1.225.07-1.768-.928-1.137-2.1-2.327-5.443-2.45-6.528-.07-.7-.227-.805 1.05-.805z" transform="translate(0 44.45)"/>
                    <path fill="#97CCFD" d="M42.35 30.747c-.07 4.935.017 9.818.122 14.7l.088 3.675.105 3.658c.035 1.225.053 2.45.087 3.675.035 1.225.07 2.45.088 3.693 0 .63.017 1.242 0 1.89 0 .315-.018.665-.035.997l-.053.525-.07.49c-.087.648-.192 1.26-.315 1.873-.122.612-.227 1.224-.367 1.82l-.77 3.605-.805 3.57-.787 3.57-.77 3.57c-.508 2.38-1.016 4.76-1.436 7.157l-1.417-.28.14-1.82.157-1.82.298-3.64c.227-2.415.438-4.847.612-7.263.193-2.414.403-4.83.526-7.192.035-.595.052-1.19.07-1.767.017-.578.017-1.156.017-1.68l-.017-.386-.035-.332-.035-.35-.018-.193-.017-.21c-.053-.542-.14-1.12-.21-1.697-.316-2.345-.7-4.725-1.086-7.105l-.595-3.587-.577-3.588-1.172-7.175c-.368-2.398-.77-4.795-1.12-7.175l9.397-1.207z" transform="translate(0 44.45)"/>
                    <path fill="#76A2C4" d="M29.505 13.633l-3.447 9.222c.07.402.21.805.35 1.19.07.192.157.385.244.577.088.193.175.386.263.56.367.753.788 1.47 1.26 2.153.455.7.962 1.365 1.47 2.012l.788.963.822.928c.228.262.21.647-.052.874-.228.21-.595.21-.823 0l-.052-.035-.98-.857c-.316-.297-.648-.595-.963-.892-.63-.613-1.243-1.26-1.82-1.943-.595-.683-1.155-1.418-1.663-2.223-.122-.192-.245-.402-.385-.612-.122-.21-.244-.42-.367-.665l-.175-.35-.158-.367c-.052-.123-.105-.263-.157-.403l-.07-.227-.035-.14-.017-.07-.035-.14c-.035-.14-.035-.28 0-.42l.14-.858 1.68-9.887c.21-1.226 1.364-2.048 2.59-1.838 1.224.21 2.047 1.365 1.837 2.59-.017.14-.052.28-.105.402l-.14.456zM41.072 3.64s1.225 1.785 1.278 3.972l-.892.175" transform="translate(0 44.45)"/>
                    <path fill="#97CCFD" d="M37.625 10.867c.892.42 4.375.893 4.182-4.987C41.58-1.487 37.292.577 37.292.577s-4.165 2.608-1.89 7.84l.666 7.298c.175.823 1.855-.49 1.995-.945" transform="translate(0 44.45)"/>
                    <path fill="#FD6880" d="M38.587 27.457S46.883 30.1 46.41 53.9c-1.697.525-8.452 1.278-17.552-4.235-9.258-5.617-14.526-1.207-14.526-1.207s9.03-7.56 10.325-10.518c1.296-2.957 4.69-9.205 5.95-10.377 1.015-.928.823-5.128-.717-8.103-1.4-2.73-.718-3.868-.718-3.868s-1.417-1.82.123-2.467c1.697-.7 8.942-.857 8.942-.857S42.7 17.5 42.053 19.39c-.875 2.59-2.713 4.322-3.465 8.067z" transform="translate(0 44.45)"/>
                    <path fill="#6988FF" d="M41.475 3.203c-.788-4.533-7.42-4.078-9.205.927-4.183 6.563-18.48 2.24-24.833 13.003-5.18 8.802 5.426 21.875-7.315 20.79 0 0 4.236 11.112 12.128 7.384 7.892-3.727 2.45-11.69 6.247-15.085 3.798-3.377 10.92-2.45 14.543-9.135 3.623-6.684 4.288-11.62 5.057-15.68 1.75-.595.63-2.012 3.378-2.204z" transform="translate(0 44.45)"/>
                    <path fill="#4A7CD5" d="M12.74 45.85c7.893-3.727 3.43-10.255 7.228-13.633 3.797-3.377 9.712-2.484 13.335-9.17 3.622-6.684 5.845-14.84 4.095-17.36 2.484.035 1.12-2.572 4.06-2.485-.456-.717-2.888-1.084-2.783 2.853-1.575.35-1.137 5.373-4.06 10.36-2.748 4.69-5.023 6.93-8.278 8.068-3.255 1.137-8.47 2.274-9.17 7.805-.7 5.512-1.19 10.447-5.057 12.092-3.867 1.645-9.94-2.047-12.022-6.458.035 0 4.76 11.656 12.652 7.928z" transform="translate(0 44.45)"/>
                    <path fill="#76A2C4" d="M38.867 5.407c-.07-.262-1.802-.752-1.54 1.016.263 1.697 1.838.997 1.785.787" transform="translate(0 44.45)"/>
                    <path fill="#97CCFD" d="M38.938 5.338c-.07-.28-1.768-1.138-1.506.734.245 1.803 1.803 1.4 1.733 1.173" transform="translate(0 44.45)"/>
                    <path fill="#FFA897" d="M40.197 27.773c-.717-2.118-2.782-2.1-4.445-2.136-1.364-.035-2.73.193-4.007.63-.438.14-2.503.893-1.207 1.348.595.21 1.802-.122 2.432-.14 1.242-.07 2.502-.018 3.745.07 2.66.227 3.08.91 3.482.227z" transform="translate(0 44.45)"/>
                    <path fill="#E15B69" d="M40.617 17.552s1.418 2.713.77 3.535c-.647.84-3.972-.35-3.255-6.562l2.486 3.027z" transform="translate(0 44.45)"/>
                    <path fill="#97CCFD" d="M43.663 14c1.4 1.19 2.765 2.45 4.13 3.675.682.613 1.347 1.225 1.995 1.872.332.316.647.613.997.893.175.14.35.262.508.35.087.053.175.105.245.14.07.035.157.053.192.07.018 0 .035 0 .018.017h-.018s-.017 0-.017.018h-.018c.017 0 .07-.035.14-.087.123-.088.245-.228.367-.386.245-.315.49-.7.7-1.085.21-.384.403-.805.596-1.224.192-.42.367-.84.525-1.278.332-.858.647-1.733.927-2.608.14-.437.262-.892.402-1.33l.193-.665.175-.665 1.837.508c-.577 1.838-1.085 3.64-1.697 5.477-.315.91-.612 1.838-1.032 2.783-.21.473-.42.962-.753 1.487-.175.263-.367.543-.7.84-.175.158-.367.316-.682.473l-.07.035-.105.035c-.07.035-.14.053-.21.07-.14.035-.263.053-.368.07-.227.018-.402.018-.542 0-.298-.035-.526-.087-.718-.14-.193-.052-.367-.105-.525-.157-.315-.105-.595-.21-.858-.298-.542-.192-1.032-.385-1.522-.613-.472-.21-.928-.472-1.33-.752-.105-.07-.193-.14-.297-.227l-.28-.228-.543-.49c-.7-.665-1.365-1.382-1.943-2.152-.594-.77-1.12-1.593-1.54-2.538l1.82-1.89z" transform="translate(0 44.45)"/>
                    <path fill="#FD6880" d="M47.443 16.398s-4.41-4.078-9.276-4.078c-.367 0-.105 1.487-.105 1.487s3.466 7.718 6.616 9.223c3.202-2.275 2.765-6.633 2.765-6.633z" transform="translate(0 44.45)"/>
                    <g fill="#97CCFD">
                        <path d="M1.75 3.098S1.82.244 2.118.21c.577-.087.49 2.73.315 2.94-.175.21-.683-.052-.683-.052z" transform="translate(0 44.45) translate(54.25 7.175)"/>
                        <path d="M2.467 3.22S3.342.07 3.692.087c.403.018-.28 2.993-.542 3.203-.228.228-.683-.07-.683-.07z" transform="translate(0 44.45) translate(54.25 7.175)"/>
                        <path d="M3.15 3.447S4.41.717 4.848.893c.314.122-.753 2.572-1.033 2.73-.28.157-.665-.176-.665-.176z" transform="translate(0 44.45) translate(54.25 7.175)"/>
                        <path d="M3.797 3.692S5.582 1.715 5.81 1.907c.245.21-1.137 2.083-1.435 2.136-.28.07-.578-.35-.578-.35z" transform="translate(0 44.45) translate(54.25 7.175)"/>
                        <path d="M2.94 5.495c.875-.053 1.663-1.627 1.663-1.627s-1.4-1.418-1.978-1.4c-.578.017-.84.122-.84.122l-.28 2.503s1.067.437 1.435.402z" transform="translate(0 44.45) translate(54.25 7.175)"/>
                        <path d="M1.4 5.145s-.28-1.032-.665-1.4C.403 3.43-.088 2.38.263 2.397c.612.036 1.172.596 1.207.998.035.402.84-.245.84-.245s.018 2.205-.91 1.995z" transform="translate(0 44.45) translate(54.25 7.175)"/>
                    </g>
                </g>
                <path fill="#76AFD8" fill-rule="nonzero" d="M110.565 93.1c-1.225 0-2.047-.052-2.1-.052-.157-.018-.315-.053-.455-.14-.193-.106-4.813-2.66-7.648-8.505l2.03-.98c2.206 4.532 5.636 6.86 6.493 7.385 2.275.122 7.805.07 10.045-1.576l1.347 1.82c-1.487 1.103-3.954 1.768-7.314 1.995-.893.035-1.698.053-2.398.053z"/>
                <path fill="#E15E6E" fill-rule="nonzero" d="M111.457 90.528s6.633-1.506 9.24-2.24c.578 1.995-.297 4.34-8.434 5.145-.56-1.103-.806-2.066-.806-2.906z"/>
                <path fill="#005693" fill-rule="nonzero" d="M114.905 111.055L114.905 111.055 114.537 110.95z"/>
                <path fill="#000" fill-rule="nonzero" d="M114.905 111.055L114.905 111.055 114.537 110.95z"/>
                <path fill="#2A748C" fill-rule="nonzero" d="M126.21 112.35l-11.007 13.02-1.033-2.275c.49-.017.962 0 1.453.017l1.452.07 2.888.123 5.792.262 11.567.508.018 1.593-11.568.734-5.775.368-2.887.193c-.963.052-1.925.14-2.888.14-1.47 0-2.66-1.173-2.677-2.643 0-.612.21-1.19.543-1.627l.105-.14 10.43-13.546 3.587 3.203z"/>
                <path fill="#4287A5" fill-rule="nonzero" d="M117.582 105.752c0 .035-.857 3.693-.804 3.71.402.088 7.017 4.673 9.694 2.853 2.94-1.995 1.506-7.735.106-9.1-.053-.053.087-.752.017-.718l-7.683 4.078c-.035.017-.052.052-.052.087l-1.278-.91z"/>
                <path fill="#FF6A84" fill-rule="nonzero" d="M118.09 89.565c-.035-.245.07-.472.28-.63 2.748-1.172 8.47-1.19 8.942-.385.473.84 1.33 18.847.928 19.25-.403.403-10.588-.438-10.99-.91-.017-.525 1.575-11.235.84-17.325z"/>
                <path fill="#E15E6E" fill-rule="nonzero" d="M118.09 100.082l5.127.21s2.643-8.434 4.113-11.742c-.017-.858-8.575-.787-9.328.805l.088 10.727z"/>
                <path fill="#95CBFF" fill-rule="nonzero" d="M117.688 85.365c1.242.21 3.132.333 3.167.35.822.822.892 3.78.77 4.55-.017.088 1.75.052 1.767 0l.333-8.172c.018-.508.07-1.838-.297-3.518-.35-1.663-5.268-2.52-6.195-.91-.49.857-.7 1.313-.77 1.995-.595 4.463-.805 5.373 1.225 5.705z"/>
                <path fill="#76AFD8" fill-rule="nonzero" d="M117.968 79.24l-.963 3.465c-.017.088.035.157.123.157l1.662-.07"/>
                <path fill="#6988FF" fill-rule="nonzero" d="M119.543 77.42c.454.227-1.576 2.328-2.696.21-.087-.157.123-.297.21-.157.456.752-.332 2.17-1.855 1.067-.034-.035-.087-.035-.14 0-.927.665-2.94-.945-1.172-2.328.052-.035.07-.122.035-.175-.21-.472-.945-2.292.718-2.257.105 0 .174-.14.105-.228-.7-.997-.7-4.112 1.434-3.412.088.035.175-.052.158-.14-.14-1.855 1.662-4.34 3.167-.228-1.12-2.327 3.885-4.217 3.693.123 0 .105.105.175.192.123.806-.525 3.29-.876 2.73 2.047-.017.105.07.192.158.157.91-.35 2.555.753 1.12 3.063-.035.053-.035.123.017.175.403.473 1.365 1.943-.612 3.255-.07.052-.088.175-.018.227.56.49.473 2.608-2.275 3.168h-.017c-1.243.07-1.838-.105-1.33-2.117.017-.088-.035-.193-.123-.175-.525.052-1.872.017-.892-1.96.192.524-2.17.857-1.418-1.26.193.262-.332 1.697-1.19.822z"/>
                <path fill="#97CCFD" fill-rule="nonzero" d="M122.132 80.465c-.087-.297 1.418-2.205 2.17-.315.718 1.82-1.312 2.468-1.382 2.24"/>
                <path fill="#E15E6E" fill-rule="nonzero" d="M121.275 88.252s1.19 1.243 2.485.07l-.123 2.17-2.24-.087-.122-2.153z"/>
                <path fill="#4287A5" fill-rule="nonzero" d="M123.358 112.525l-19.198-2.835 2.87-2.73c.035.928 0 1.873-.017 2.8l-.053 2.817-.105 5.618-.21 11.235-1.593.052-1.05-11.2-.524-5.6-.263-2.8-.123-1.4c-.052-.472-.087-.927-.087-1.4v-.07c0-.734.595-1.347 1.33-1.347h.158l19.25 2.047-.385 4.813z"/>
                <path fill="#FF667E" fill-rule="nonzero" d="M107.608 128.852s-.456 3.255-.946 3.658c-.49.403-9.187.14-9.432-.227-.245-.368.665-2.345 2.397-2.345 5.25 0 4.9-1.89 4.813-1.943l3.168.857z"/>
                <circle cx="105.157" cy="130.725" r="1" fill="#FFF" fill-rule="nonzero"/>
                <path fill="#FFF" fill-rule="nonzero" d="M101.588 129.518s.017 0 0 0c.052 0 .07.035.07.07l-.175 1.172c0 .035-.035.053-.07.053s-.053-.035-.053-.07l.175-1.173c0-.035.017-.052.053-.052zM100.975 129.518c.053 0 .07.035.07.07l-.175 1.172c0 .035-.035.053-.07.053s-.052-.035-.052-.07l.174-1.173c-.017-.035.018-.052.053-.052zM100.38 129.675c.035 0 .07.035.07.07v.998c0 .035-.035.07-.07.07s-.07-.035-.07-.07v-.998c0-.035.035-.07.07-.07z"/>
                <path fill="#E15E6E" fill-rule="nonzero" d="M134.173 123.638s2.782-1.75 3.412-1.628c.63.122 6.02 6.93 5.897 7.367-.122.438-2.222.998-3.325-.332-3.377-4.025-4.602-2.52-4.585-2.432l-1.4-2.975z"/>
                <path fill="#FFF" fill-rule="nonzero" d="M137.428 121.993L138.18 121.748 144.13 128.993 143.482 129.36zM138.565 127.82s-.017 0 0 0c-.017-.035-.017-.087.018-.105l.997-.612c.035-.018.07 0 .087.017.018.035.018.07-.017.087l-.998.613c-.034.035-.07.018-.087 0zM138.95 128.292c-.017-.035-.017-.087.018-.105l.997-.612c.035-.017.07-.017.088.017.017.035.017.07-.018.088l-.998.612c-.017.035-.052.035-.087 0zM139.475 128.643c-.017-.036-.017-.07 0-.088l.77-.648c.035-.017.07-.017.088 0 .017.035.017.07 0 .088l-.77.648c-.035.035-.07.035-.088 0z"/>
                <path fill="#76AFD8" fill-rule="nonzero" d="M103.425 98.683c.053-1.506 1.383.594-.543-1.576-.332-.367-.42-1.68-.665-1.4-.454.49-.454 1.348-.174 1.68.28.333-.823.456-.823.456s1.662 1.697 2.205.84zM100.17 81.83s.892-.735 1.085-1.26c.175-.472.998-1.417 1.138-1.067.245.63-.07 1.434-.456 1.627-.385.21.596.718.596.718s-2.153.98-2.363-.018z"/>
                <path fill="#FF6A84" fill-rule="nonzero" d="M103.845 75.547L109.97 77.63 96.25 114.222 89.845 111.843z"/>
                <path fill="#97CCFD" fill-rule="nonzero" d="M102.043 97.615s-2.678-1.522-2.888-1.277c-.42.49 2.24 1.995 2.537 1.942.316-.07.35-.665.35-.665z"/>
                <path fill="#97CCFD" fill-rule="nonzero" d="M101.745 98.35s-3.395-.962-3.588-.63c-.21.368 2.923 1.418 3.273 1.313.35-.106.315-.683.315-.683z"/>
                <path fill="#97CCFD" fill-rule="nonzero" d="M101.588 99.085s-3.238-.367-3.325.14c-.053.368 2.8.753 3.097.578.315-.175.228-.718.228-.718z"/>
                <path fill="#97CCFD" fill-rule="nonzero" d="M101.448 99.838s-2.835.542-2.783.857c.052.333 2.572.123 2.782-.122.21-.228 0-.735 0-.735z"/>
                <path fill="#97CCFD" fill-rule="nonzero" d="M103.6 100.065c-.542.77-2.45.63-2.45.63s-.525-2.1-.175-2.625c.35-.525.578-.717.578-.717l2.484.647c.018 0-.21 1.733-.437 2.065z"/>
                <path fill="#95CBFF" fill-rule="nonzero" d="M115.517 101.272h-.105l-11.97-1.05.193-2.257 11.445.998 9.485-9.328 1.593 1.61-9.87 9.695c-.193.21-.473.332-.77.332z"/>
                <path fill="#FF6A84" fill-rule="nonzero" d="M118.615 95.305s6.843-8.05 8.47-6.913c1.698 1.19-4.917 8.19-5.512 8.908-1.103-.507-2.45-1.347-2.958-1.995z"/>
                <path fill="#97CCFD" fill-rule="nonzero" d="M100.502 83.388s2.468 1.855 2.713 1.627c.472-.438-1.978-2.24-2.275-2.24-.315.017-.438.612-.438.612zM100.905 82.688s3.255 1.382 3.483 1.067c.244-.35-2.73-1.767-3.08-1.697-.368.052-.403.63-.403.63z"/>
                <path fill="#97CCFD" fill-rule="nonzero" d="M101.15 81.97s3.167.752 3.307.263c.106-.35-2.694-1.086-3.01-.946-.315.14-.297.683-.297.683z"/>
                <path fill="#97CCFD" fill-rule="nonzero" d="M101.377 81.235s2.888-.192 2.87-.507c-.017-.333-2.537-.438-2.782-.228-.228.21-.088.735-.088.735z"/>
                <path fill="#97CCFD" fill-rule="nonzero" d="M102.62 80.412s-1.453-.07-1.855.263c-.752.612-1.067 1.978-.508 2.765.175.245 1.19.612 1.19.612l1.173-3.64z"/>
                <path stroke="#FD6880" stroke-linejoin="round" stroke-width="2.262" d="M133.525 19.775s-.578 4.218-1.05 5.565c-1.977 5.6-13.195 17.378-13.195 17.378"/>
                <g fill-rule="nonzero" transform="translate(90.475 34.125)">
                    <ellipse cx="28.362" cy="9.065" fill="#FD6880" rx="1.82" ry="1.715" transform="rotate(-85.752 28.362 9.065)"/>
                    <path fill="#76A2C4" d="M27.86 8.505s-.315-.84-.875-.823c-.735.018-.805-1.085-1.067-1.014-.333.104-.123 1.627.297 2.414.367.7 1.645-.577 1.645-.577z"/>
                    <g>
                        <path fill="#FF6A84" d="M11.725.28c.123.122.928 1.943.928 1.943L14.296.07l-2.572.21z"/>
                        <path fill="#FFA897" d="M.018 10.377l4.987 5.425s6.843-8.05 13.02-1.872c6.178 6.178.928 13.108-.42 14.105l5.547 4.655s14.245-15.75.945-26.547C12.863-2.976.018 10.376.018 10.376z"/>
                        <path fill="#FF6A84" d="M12.723 3.22C5.652 4.532.017 10.377.017 10.377l4.988 5.425s3.745-4.41 8.19-4.2l-.473-8.382z"/>
                    </g>
                    <path fill="#97CCFD" d="M26.093 9.117s.63-.98.98-1.102c.91-.333 2.537 1.102 2.415 1.872-.123.77-1.628 1.663-1.628 1.663l-1.767-2.433z"/>
                    <path fill="#97CCFD" d="M26.74 8.662s-2.73 1.47-2.642 1.785c.192.613 2.887-.857 3.01-1.137.122-.28-.368-.648-.368-.648z"/>
                    <path fill="#97CCFD" d="M27.142 9.223s-2.485 2.537-2.274 2.87c.227.367 2.66-1.908 2.73-2.275.07-.35-.456-.595-.456-.595z"/>
                    <path fill="#97CCFD" d="M27.598 9.835s-1.96 2.625-1.558 2.957c.297.228 2.065-2.047 2.065-2.415.017-.35-.508-.542-.508-.542z"/>
                    <path fill="#97CCFD" d="M28.21 10.185s-1.4 2.555-1.12 2.713c.297.175 1.733-1.925 1.698-2.24-.035-.316-.578-.473-.578-.473z"/>
                </g>
            </g>
        </g>
    </g>
</svg>
