<svg xmlns="http://www.w3.org/2000/svg" xmlns:xlink="http://www.w3.org/1999/xlink" width="140" height="140" viewBox="0 0 140 140">
    <defs>
        <circle id="prefix__a" cx="70" cy="70" r="70"/>
    </defs>
    <g fill="none" fill-rule="evenodd">
        <mask id="prefix__b" fill="#fff">
            <use xlink:href="#prefix__a"/>
        </mask>
        <use fill="#F5F5F5" xlink:href="#prefix__a"/>
        <g mask="url(#prefix__b)">
            <g>
                <g>
                    <g fill-rule="nonzero">
                        <path fill="#F6F6F6" d="M3.845 101.591L119.278 83.737 117.381 0.478 0.429 18.579z" transform="translate(8 18) translate(3.63)"/>
                        <path fill="#C9C9C9" d="M119.625 84.018L3.531 101.987l-.017-.33L.083 18.281 117.71.099l1.914 83.919zM4.175 101.211l114.757-17.754L117.051.875.792 18.86l3.383 82.351z" transform="translate(8 18) translate(3.63)"/>
                        <path fill="#FF6A84" d="M27.258 25.262c8.151-1.881 12.375 3.283 12.474 8.233.083 4.95-5.709 13.959-12.457 14.998-6.765 1.04-12.722-.462-13.085-9.602-.363-9.141 5.874-11.98 13.068-13.63z" transform="translate(8 18) translate(3.63)"/>
                        <path fill="#FFA897" d="M26.945 36.712l.577 14.355s7.21-1.204 11.88-6.583c4.67-5.379 3.118-11.072 3.118-11.072l-15.576 3.3zM14.619 61.281l-.445 7.31 8.052-1.898v-6.567l-7.607 1.155zm6.567 4.785l-5.973 1.435.297-5.461 5.676-.874v4.9zM22.308 70.24l-7.788 1.915.726 6.451 7.986-2.046-.924-6.32zm-6.088 7.013l-.512-4.488 5.94-1.452.495 4.537-5.924 1.403zM22.539 79.712l-7.326 1.699.776 6.385 7.375-1.996-.825-6.088zm-5.627 6.682l-.511-4.142 5.23-1.121.677 3.943-5.395 1.32zM28.166 62.403L28.166 63.261 48.559 59.681 48.559 58.657zM28.232 71.973L28.232 72.963 49.962 68.607 49.962 67.485zM28.611 80.784L28.611 81.757 49.599 78.028 49.599 76.808z" transform="translate(8 18) translate(3.63)"/>
                        <path fill="#FF6A84" d="M68.211 56.611L68.211 78.457 73.227 77.698 72.121 56.001z" transform="translate(8 18) translate(3.63)"/>
                        <path fill="#FFA897" d="M77.121 24.172L77.138 76.362 82.137 76.313 82.137 23.397z" transform="translate(8 18) translate(3.63)"/>
                        <path fill="#FF6A84" d="M87.302 44.731L87.302 75.52 91.839 74.811 91.839 44.038z" transform="translate(8 18) translate(3.63)"/>
                        <path fill="#444343" d="M3.745 92.251L4.175 101.211 118.932 83.457 118.701 74.481z" transform="translate(8 18) translate(3.63)"/>
                        <path fill="#F6F6F6" d="M112.959 81.477L18.364 96.112c-.874.133-1.6-.478-1.6-1.369s.726-1.716 1.6-1.864l94.595-14.636c.874-.132 1.6.479 1.6 1.37 0 .89-.725 1.732-1.6 1.864z" transform="translate(8 18) translate(3.63)"/>
                        <path fill="#969696" d="M63.608 89.117l-45.243 6.995c-.875.133-1.601-.478-1.601-1.369s.726-1.716 1.6-1.864l45.243-6.997c.875-.132 1.601.479 1.601 1.37 0 .891-.726 1.733-1.6 1.865z" transform="translate(8 18) translate(3.63)"/>
                        <path fill="#F6F6F6" d="M10.032 97.697L8.58 97.911 8.58 94.116 10.032 93.885zM13.068 97.218L11.616 97.449 11.616 93.654 13.068 93.423z" transform="translate(8 18) translate(3.63)"/>
                        <path fill="#969696" d="M2.326 55.523L28.133 14.602 46.002 11.864 3.201 77.468zM5.379 92.004L57.139 10.131 64.499 8.976 12.342 90.931z" opacity=".1" transform="translate(8 18) translate(3.63)"/>
                        <path fill="#969696" d="M59.862 83.573L102.663 3.086 117.051 0.875 118.701 74.481z" opacity=".2" transform="translate(8 18) translate(3.63)"/>
                    </g>
                    <g transform="translate(8 18) translate(3.63) translate(77.88 26.4)">
                        <path fill="#AA4B67" fill-rule="nonzero" d="M8.811 53.295s-.907 1.518-2.838 3.597c7.062 3.729 20.576 1.27 24.767.676 11.335-1.6 10.048-3.877 10.048-3.877s-13.662-14.57-31.977-.396z"/>
                        <path fill="#FD6880" fill-rule="nonzero" d="M9.603 98.456c-1.881-.215-8.052-2.806-8.96-3.317-.808-.462-.94-2.392 2.442-2.013 1.354.148 7.211 3.02 7.211 3.02s.297 2.425-.693 2.31zM6.814 94.198s-1.006-1.32-.857-1.517c.131-.182 2.177-1.403 2.293-.809.116.594.214 2.624-.214 2.772-.446.181-1.221-.446-1.221-.446z"/>
                        <g fill-rule="nonzero">
                            <path fill="#C62A5E" d="M0.297 2.095L0.297 0.346 1.865 0.214 3.482 1.188 3.053 3.069z" transform="translate(6.765 93.06)"/>
                            <path fill="#FD6880" d="M1.831.38l1.469.89-.363 1.601L.462 1.98V.495L1.832.38m.065-.33L.133.197v1.997l3.036 1.089.495-2.178L1.898.05z" transform="translate(6.765 93.06)"/>
                        </g>
                        <path fill="#C62A5E" fill-rule="nonzero" d="M3.184 93.472c.363.083.71.166 1.073.248.347.099.71.198 1.056.297.347.099.71.198 1.04.347.33.148.66.313.957.544l-.017.033c-.363-.082-.71-.181-1.056-.297-.346-.116-.676-.264-1.006-.396-.33-.132-.677-.264-1.024-.38-.346-.131-.676-.247-1.022-.362v-.034z"/>
                        <path fill="#FFF" fill-rule="nonzero" d="M5.692 93.918s-.89-.495-1.336.544M6.501 94.215s-.891-.495-1.337.544"/>
                        <path fill="#97CCFD" fill-rule="nonzero" d="M21.12 50.44c-.742 1.799-1.469 3.614-2.195 5.429-.726 1.815-1.451 3.63-2.145 5.445-.709 1.815-1.402 3.63-2.079 5.461l-.495 1.37-.478 1.37c-.165.462-.313.907-.462 1.353-.149.445-.28.89-.429 1.336l-.066-.016c-.099.462-.215.907-.314 1.369l-.296 1.403-.281 1.419-.264 1.418c-.33 1.898-.66 3.829-.957 5.743-.61 3.844-1.171 7.705-1.7 11.55-.049.33-.362.577-.692.528-.314-.05-.545-.314-.528-.627.049-3.911.148-7.805.263-11.732.066-1.963.149-3.91.248-5.874l.082-1.469.1-1.484c.032-.496.082-.99.131-1.502.05-.495.116-1.023.165-1.535l-.049-.016c.066-.511.132-1.04.214-1.535.083-.494.165-1.006.248-1.501l.264-1.485.28-1.469c.38-1.946.776-3.893 1.188-5.824.413-1.93.825-3.861 1.255-5.775.428-1.93.857-3.844 1.303-5.775l.017-.05c.511-2.178 2.672-3.53 4.85-3.019 2.179.512 3.532 2.673 3.02 4.851-.05.231-.116.462-.198.644z"/>
                        <path fill="#FD6880" fill-rule="nonzero" d="M10.296 97.103l.116-2.921s-1.271.627-1.882.578c-.61-.05-2.078-.859-2.078-.859-.066-.032-.149.034-.133.1l.463 2.689c.016.017 2.012 1.584 3.514.413z"/>
                        <path fill="#FFF" fill-rule="nonzero" d="M10.362 97.267s-.924-.132-.924.694c-2.31-.297-8.795-3.185-8.96-3.416-.164-.248-.148-.858.463-1.27-.33.066-1.535.99-.512 1.748 1.897 1.386 7.507 3.334 9.059 3.482.792.066.924.248.874-1.237z"/>
                        <circle cx="7.689" cy="95.716" r="1" fill="#FFF" fill-rule="nonzero"/>
                        <path fill="#FD6880" fill-rule="nonzero" d="M28.067 91.493c-1.75-.215-7.508-2.624-8.366-3.102-.759-.43-.875-2.245 2.277-1.882 1.254.132 6.732 2.822 6.732 2.822s.297 2.26-.643 2.162zM25.476 87.516s-.924-1.238-.808-1.403c.131-.181 2.046-1.303 2.145-.758.099.544.198 2.441-.198 2.59-.413.149-1.139-.429-1.139-.429z"/>
                        <g fill-rule="nonzero">
                            <path fill="#C62A5E" d="M0.297 1.947L0.297 0.314 1.749 0.198 3.267 1.105 2.871 2.854z" transform="translate(25.41 86.46)"/>
                            <path fill="#FD6880" d="M1.716.346l1.37.825-.33 1.485-2.31-.825V.446l1.27-.1M1.782.05L.149.181v1.864L2.97 3.053l.462-2.03L1.782.05z" transform="translate(25.41 86.46)"/>
                        </g>
                        <path fill="#C62A5E" fill-rule="nonzero" d="M22.077 86.84c.66.132 1.32.313 1.98.511.33.099.66.181.974.33.313.132.61.297.89.511l-.016.017c-.347-.066-.66-.181-.99-.28-.313-.1-.627-.248-.94-.38-.628-.248-1.271-.479-1.915-.693l.017-.016z"/>
                        <path fill="#FFF" fill-rule="nonzero" d="M24.585 87.087s-.825-.462-1.238.511M25.179 87.532s-.825-.462-1.237.512"/>
                        <path fill="#76A2C4" fill-rule="nonzero" d="M26.598 40.64c.413.181.726.395 1.007.61.148.099.264.215.379.33.115.116.231.215.33.33.413.446.677.908.858 1.386.181.479.264.957.28 1.468l.05 1.485c.033 1.997-.05 4.01-.214 6.04l-.133 1.517-.148 1.535c-.099 1.023-.181 2.03-.264 3.053-.082 1.023-.132 2.029-.132 3.019-.017.495.017.99.017 1.485.016.495.066.973.099 1.452.049.479.115.957.181 1.403l.066.412c.033.148.05.297.066.445l.05.43.049.428c.116 1.123.116 2.212.082 3.267-.066 2.112-.23 4.175-.445 6.204-.198 2.03-.429 4.06-.643 6.073-.066.511-.1 1.006-.149 1.517l-.165 1.519-.132 1.517c-.017.248-.033.512-.066.76l-.05.758c-.016.364-.33.627-.676.611-.346-.017-.627-.314-.61-.677v-.115c.099-1.996.115-4.026.115-6.023 0-2.013-.033-4.009-.132-5.989-.099-1.98-.248-3.944-.561-5.825-.149-.94-.347-1.864-.594-2.689l-.099-.314-.099-.296c-.033-.1-.066-.199-.099-.281-.033-.099-.066-.165-.115-.314-.198-.528-.364-1.039-.529-1.534-.66-2.03-1.155-4.026-1.6-6.039-.462-2.013-.874-4.01-1.254-6.006l-.578-3.003-.56-3.003-.264-1.502-.281-1.501c-.083-.495-.198-1.006-.297-1.502-.05-.247-.099-.495-.165-.759-.05-.247-.115-.495-.181-.759-.33-1.32.494-2.656 1.814-2.986.561-.132 1.122-.066 1.617.148l4.175 1.914z"/>
                        <path fill="#FD6880" fill-rule="nonzero" d="M28.727 90.239l.099-2.723s-1.189.578-1.75.544c-.577-.032-1.93-.791-1.93-.791-.066-.034-.132.032-.116.099l.43 2.508c-.017-.017 1.848 1.451 3.267.362z"/>
                        <path fill="#FFF" fill-rule="nonzero" d="M28.776 90.37s-.858-.132-.858.644c-2.145-.264-8.217-2.97-8.366-3.184-.148-.231-.131-.809.43-1.189-.314.05-1.436.924-.479 1.634 1.765 1.287 7.012 3.118 8.448 3.25.759.066.875.231.825-1.154z"/>
                        <path fill="#76A2C4" fill-rule="nonzero" d="M17.127 3.58s-1.468 1.816-1.7 4.142l.941.264"/>
                        <path fill="#97CCFD" fill-rule="nonzero" d="M20.229 11.6c-.99.379-4.752.594-4.075-5.676.858-7.871 5.28-5.297 5.28-5.297s4.24 3.135 1.369 8.564l-1.32 7.754c-.248.875-1.947-.676-2.063-1.171"/>
                        <path fill="#FD6880" fill-rule="nonzero" d="M16.517 29.205S7.409 31.35 5.957 56.892c1.782.693 8.942 2.079 19.156-3.086 10.395-5.263 15.675-.098 15.675-.098s-9.058-8.844-10.197-12.111c-1.139-3.267-4.257-10.264-5.527-11.617-1.007-1.072-.462-5.56 1.435-8.629 1.733-2.822 1.089-4.092 1.089-4.092s1.666-1.832.066-2.657c-1.765-.89-9.52-1.65-9.52-1.65s-5.215 5.231-4.67 7.31c.726 2.854 2.557 4.867 3.053 8.943z"/>
                        <g fill-rule="nonzero">
                            <path fill="#6988FF" d="M.083 3.086C1.302-1.7 8.365-.676 9.867 4.835c3.943 7.375 19.618 3.91 25.525 15.971 4.835 9.851-7.623 23.001 6.122 22.87 0 0-5.445 11.55-13.596 6.913-8.151-4.636-1.666-12.738-5.445-16.681-3.795-3.944-11.5-3.515-14.833-10.99C4.306 15.462 4.01 10.132 3.497 5.71 1.683 4.934 3.003 3.498.082 3.086z" transform="translate(16.665)"/>
                            <path fill="#4A7CD5" d="M27.34 51.15c-8.15-4.636-2.837-11.27-6.633-15.197-3.794-3.943-10.197-3.465-13.53-10.923-3.332-7.457-5.032-16.384-2.97-18.942-2.672-.181-.99-2.854-4.157-3.002.544-.743 3.184-.924 2.755 3.283 1.666.495.775 5.841 3.498 11.434 2.558 5.247 4.818 7.838 8.2 9.323 3.4 1.485 8.894 3.135 9.174 9.108.297 5.973.413 11.286 4.422 13.365 4.01 2.079 10.824-1.386 13.415-5.923 0 0-6.023 12.11-14.174 7.474z" transform="translate(16.665)"/>
                        </g>
                        <g fill-rule="nonzero">
                            <path fill="#76A2C4" d="M.544.544c.1-.264 1.997-.66 1.568 1.222-.413 1.798-2.063.907-1.98.692" transform="translate(18.81 5.115)"/>
                            <path fill="#97CCFD" d="M.478.462c.1-.297 1.98-1.073 1.552.907C1.617 3.284-.016 2.724.066 2.492" transform="translate(18.81 5.115)"/>
                        </g>
                        <path fill="#FFA897" fill-rule="nonzero" d="M14.768 29.42c.94-2.212 3.151-2.014 4.933-1.915 1.452.083 2.904.446 4.24 1.007.463.198 2.608 1.171 1.189 1.551-.66.181-1.915-.264-2.591-.363-1.337-.165-2.673-.231-4.026-.231-2.871.016-3.366.693-3.746-.05z"/>
                        <path fill="#E15B69" fill-rule="nonzero" d="M14.602 16.979s-1.55 2.557-1.006 3.399c.561.857 2.756 1.336 3.498-4.192l-2.492.793z"/>
                        <path fill="#76A2C4" fill-rule="nonzero" d="M18.282 13.233l-5.197 6.352.148-12.589-1.139.181-.791 13.349s-.116 1.898.758 2.326c.875.413 6.815-5.494 6.815-5.494l-.594-4.125z"/>
                        <path fill="#97CCFD" fill-rule="nonzero" d="M17.44 13.777l-6.138 6.683.182-12.59-1.37.182-.94 13.349s-.132 1.897.908 2.326c1.039.413 8.117-5.494 8.117-5.494l-.759-4.456z"/>
                        <path fill="#FD6880" fill-rule="nonzero" d="M11.797 19.916c2.112-2.36 4.208-4.72 6.468-6.963.264.462.545.907.809 1.369-.033 3.713-.083 8.53-2.59 11.484-3.119-1.551-3.268-3.069-4.687-5.89z"/>
                        <g>
                            <path fill="#848484" fill-rule="nonzero" d="M2.525.446s.164-.067.198-.05c.033.016.049.264.049.264h-.215L2.526.445z" transform="translate(7.755 5.115)"/>
                            <path fill="#999" fill-rule="nonzero" d="M2.508.66s-.017-.248.017-.215c.033.033.066.215.066.215h-.083z" transform="translate(7.755 5.115)"/>
                            <path fill="#848484" fill-rule="nonzero" d="M4.653.346l.066-.032.033.032.182-.032v-.05s.082-.033.115-.017c.033.017.066.149.05.182 0 .033-.446.082-.446.082L4.62.346h.033z" transform="translate(7.755 5.115)"/>
                            <g transform="translate(7.755 5.115) translate(0 .165)">
                                <path fill="#686868" fill-rule="nonzero" d="M.247.61l.446 2.36 6.468-1.056 1.056-.05.05-.115h.132s.643.082.709-.066C9.174 1.534 8.959.346 8.91.346c-.05 0-.61-.23-.908 0h-.346l-.099-.28-4.356.66C3.184.726.313.363.247.611z"/>
                                <ellipse cx=".46" cy="1.788" fill="#999" fill-rule="nonzero" rx="1" ry="1.204" transform="rotate(-10.673 .46 1.788)"/>
                                <path fill="#727272" fill-rule="nonzero" d="M1.204 3.02l-.346-.034C.908 1.849.446.528.446.528L.758.346c.033.05.511 1.42.445 2.674z"/>
                                <path d="M.247.875l.43 1.93 6.468-.891 1.056-.05.049-.115h.132s.643.082.71-.066c.066-.149-.149-1.337-.199-1.337-.049 0-.61-.23-.907 0H7.64l-.1-.28-4.356.66S.314.627.248.875z"/>
                            </g>
                            <g transform="translate(7.755 5.115) translate(.33)">
                                <path fill="#848484" fill-rule="nonzero" d="M.181.544l.446 2.36 6.468-1.056 1.056-.05.05-.115h.131s.644.083.71-.066C9.124 1.452 8.893.28 8.844.28c-.05 0-.61-.23-.907 0H7.59L7.491 0 3.135.66C3.119.676.248.297.181.544z"/>
                                <ellipse cx=".395" cy="1.736" fill="#999" fill-rule="nonzero" rx="1" ry="1.204" transform="rotate(-10.673 .395 1.736)"/>
                                <path fill="#727272" fill-rule="nonzero" d="M1.139 2.954L.792 2.92C.842 1.783.379.462.379.462L.694.281c.017.065.495 1.435.446 2.672z"/>
                                <path d="M.165.808L.594 2.74l6.468-.891 1.056-.05.05-.115H8.3s.643.083.709-.066C9.091 1.452 8.86.28 8.811.28c-.05 0-.61-.23-.907 0h-.347L7.458 0 3.102.66C3.119.676.231.577.165.808z"/>
                            </g>
                            <path fill="#E6E6E6" fill-rule="nonzero" d="M.446.676c0 .165.016.33.032.512.017.165.033.33.067.495l.098.495c.033.165.083.33.149.478-.066-.148-.132-.313-.181-.478-.05-.165-.083-.33-.116-.495-.05-.314-.083-.66-.05-1.006zM.198.924c0 .165.016.33.033.511.016.165.033.33.066.496l.099.494c.033.166.082.33.148.479-.066-.148-.132-.313-.181-.478-.05-.166-.082-.33-.115-.496C.198 1.6.164 1.27.198.925z" transform="translate(7.755 5.115)"/>
                        </g>
                        <path fill="#76A2C4" fill-rule="nonzero" d="M12.012 7.606s.198-.115.231-.247c0 0 .132-.181.149-.314.033-.131-.066-.131-.066-.131l-.116.214s-.28.33-.198.478z"/>
                        <path fill="#97CCFD" fill-rule="nonzero" d="M10.114 8.052v-.907s.1-.792.38-1.353c0 0 .066-.1 0-.215-.066-.099.116-.462.38-.181 0 0 .165-.43.494-.182 0 0 .182-.28.43-.132 0 0 .23-.198.478-.033.248.165.149.396.149.396l.049.446s.033.23.017.28c-.017.05-.05.594-.281 1.006 0 0 0 .397-.248.529-.247.131-.478.494-.478.511 0 .016-.082.297-.082.297l-.693.033-.595-.495z"/>
                    </g>
                </g>
            </g>
        </g>
    </g>
</svg>
